<svg xmlns="http://www.w3.org/2000/svg" viewBox="0 0 64 64">
  <defs>
    <linearGradient id="orange" x1="0" y1="0" x2="1" y2="1"><stop stop-color="#ff8923"/><stop offset="1" stop-color="#ff382c"/></linearGradient>
    <linearGradient id="green" x1="0" y1="0" x2="0" y2="1"><stop stop-color="#99cb17"/><stop offset="1" stop-color="#009d5b"/></linearGradient>
  </defs>
  <rect width="64" height="64" rx="14" fill="#fff"/>
  <path d="M24 13 14 16q-5 2-3 7l6 20" fill="none" stroke="#182432" stroke-width="4" stroke-linecap="round"/>
  <path d="m17 21 5-2" stroke="#182432" stroke-width="2.5" stroke-linecap="round"/>
  <path d="m22 45 10-33q1-4 5-3l14 4q4 1 3 5l-9 31" fill="#fff6f0" stroke="url(#orange)" stroke-width="4" stroke-linejoin="round"/>
  <path d="m38 11 7 2-1 3-7-2z" fill="#ff7621"/>
  <path d="M49 37q17 14 4 15l-8-1q12-2 4-14" fill="url(#green)"/>
  <path d="M11 32C-5 47 31 66 57 53 38 57 4 44 11 32" fill="url(#orange)"/>
</svg>
